<?xml version="1.0" encoding="UTF-8"?>
<svg id="Layer_1" xmlns="http://www.w3.org/2000/svg" xmlns:xlink="http://www.w3.org/1999/xlink" version="1.1" viewBox="0 0 1014.74 400">
  <!-- Generator: Adobe Illustrator 29.7.1, SVG Export Plug-In . SVG Version: 2.1.1 Build 8)  -->
  <defs>
    <style>
      .st0 {
        fill: url(#linear-gradient1);
      }

      .st1 {
        fill: url(#linear-gradient);
      }

      .st2, .st3 {
        isolation: isolate;
      }

      .st4 {
        fill: #fff;
      }

      .st3 {
        fill: #181c64;
        mix-blend-mode: multiply;
        opacity: .8;
      }

      .st5 {
        fill: #2e3192;
      }
    </style>
    <linearGradient id="linear-gradient" x1="112.68" y1="170.81" x2="131.74" y2="170.78" gradientUnits="userSpaceOnUse">
      <stop offset="0" stop-color="#646464"/>
      <stop offset=".11" stop-color="#8c8c8c"/>
      <stop offset=".22" stop-color="#afafaf"/>
      <stop offset=".35" stop-color="#ccc"/>
      <stop offset=".48" stop-color="#e2e2e2"/>
      <stop offset=".62" stop-color="#f2f2f2"/>
      <stop offset=".78" stop-color="#fcfcfc"/>
      <stop offset="1" stop-color="#fff"/>
    </linearGradient>
    <linearGradient id="linear-gradient1" x1="793.07" y1="116.35" x2="911.53" y2="136.92" gradientUnits="userSpaceOnUse">
      <stop offset="0" stop-color="#fff"/>
      <stop offset=".29" stop-color="#bebfdd"/>
      <stop offset=".78" stop-color="#5759a7"/>
      <stop offset="1" stop-color="#2e3192"/>
    </linearGradient>
  </defs>
  <g class="st2">
    <g id="Final">
      <g id="Primary_Logo">
        <g id="Primary_Main_Color_">
          <g id="Icon_Logo_Clean">
            <path class="st5" d="M200.01,147.95v37.74l-66.71-46.78c-9.38-6.58-22.06-6.58-31.44,0L0,210.21v-62.26C0,121.51,21.52,100,47.96,100h104.11c26.44,0,47.95,21.51,47.95,47.95h-.01Z"/>
            <path class="st5" d="M45.42,195.21l135.55,95.07c-8.08,6.16-18.08,9.73-28.9,9.73H47.96c-21.23,0-39.31-13.9-45.62-33.08C.83,262.27,0,257.27,0,252.07v-25c.21-.21.41-.34.69-.55l44.73-31.3h-.01Z"/>
            <path class="st5" d="M200.01,202.4v49.66c0,10.55-3.42,20.34-9.31,28.29L57.34,186.86l52.4-36.71c4.66-3.29,10.96-3.29,15.68,0l74.59,52.26h0Z"/>
            <g id="Court_Lines">
              <path class="st4" d="M73.16,300h-23.84L2.33,266.92c-1.51-4.66-2.33-9.66-2.33-14.86v-3.63c.21.21.41.34.62.48l72.53,51.1h.01Z"/>
              <path class="st4" d="M109.74,150.14l-52.4,36.71,133.36,93.49c-2.67,3.77-6.03,7.12-9.73,9.93L45.42,195.2.69,226.5c-.27.21-.48.34-.69.55v-16.85l101.85-71.3c9.38-6.58,22.06-6.58,31.44,0l66.71,46.78v16.71l-74.59-52.26c-4.73-3.29-11.03-3.29-15.68,0h0Z"/>
            </g>
            <g id="Ball">
              <ellipse class="st3" cx="113.89" cy="176.44" rx="6.41" ry="14.67" transform="translate(-78.91 259.68) rotate(-80.51)"/>
              <circle class="st1" cx="124.16" cy="170.79" r="10.27"/>
            </g>
          </g>
          <g id="Text">
            <path class="st5" d="M256.12,260.52h-15.98v-120.39h15.98l41.46,101.24,41.46-101.24h16.32v120.39h-15.98v-62.11c0-4,.05-7.44.17-10.33.11-2.88.22-5.46.33-7.74s.28-4.47.5-6.58l-35.14,86.75h-15.32l-34.97-86.42c.44,2.89.75,7.33.91,13.32.17,5.99.25,13.21.25,21.64v51.47h.01Z"/>
            <path class="st5" d="M397.83,262.52c-8.66,0-15.46-2.28-20.4-6.83s-7.41-10.49-7.41-17.82,2.67-13.4,7.99-17.9c5.33-4.5,12.76-7.13,22.31-7.91l25.64-2v-2.33c0-4.55-.83-8.19-2.5-10.91-1.66-2.72-3.94-4.66-6.83-5.83s-6.16-1.75-9.83-1.75c-6.55,0-11.63,1.36-15.23,4.08-3.61,2.72-5.41,6.58-5.41,11.57h-13.65c0-5.66,1.44-10.6,4.33-14.82,2.88-4.22,6.96-7.49,12.24-9.83,5.27-2.33,11.41-3.5,18.4-3.5s12.68,1.2,17.73,3.58c5.05,2.39,8.99,5.99,11.83,10.82,2.83,4.83,4.24,10.91,4.24,18.23v51.12h-13.32l-1.66-13.16c-2.11,4.66-5.74,8.35-10.91,11.07-5.16,2.72-11.02,4.08-17.57,4.08v.04h.01ZM402.32,250.36c7.44,0,13.26-2.25,17.48-6.74,4.22-4.5,6.33-10.57,6.33-18.24v-4.33l-20.81,1.67c-6.89.67-11.85,2.28-14.9,4.83-3.06,2.55-4.58,5.83-4.58,9.83,0,4.33,1.47,7.57,4.41,9.74,2.94,2.16,6.96,3.24,12.07,3.24h0Z"/>
            <path class="st5" d="M446.28,179.09h47.62v13.15h-47.62v-13.15ZM477.92,260.52h-15.65v-106.9h15.65v106.9Z"/>
            <path class="st5" d="M495.07,219.89c0-8.55,1.69-16.04,5.08-22.48,3.38-6.44,8.07-11.49,14.07-15.15,6-3.66,12.93-5.5,20.81-5.5,10.21,0,18.7,2.72,25.48,8.16,6.77,5.44,10.82,12.66,12.16,21.65h-15.65c-1.33-5.22-3.94-9.16-7.83-11.82-3.89-2.67-8.44-4-13.66-4-4.89,0-9.22,1.2-12.99,3.58-3.78,2.39-6.72,5.75-8.83,10.07-2.11,4.33-3.16,9.44-3.16,15.32s1,10.96,3,15.24c2,4.27,4.83,7.6,8.49,9.99s7.94,3.58,12.82,3.58c5.55,0,10.33-1.39,14.32-4.16,4-2.77,6.66-6.55,7.99-11.32h15.65c-1,5.88-3.25,11.02-6.74,15.4-3.5,4.39-7.94,7.83-13.32,10.33-5.39,2.5-11.35,3.75-17.9,3.75-7.99,0-14.96-1.78-20.9-5.33-5.94-3.55-10.57-8.52-13.91-14.9-3.33-6.38-4.99-13.85-4.99-22.4h.01Z"/>
            <path class="st5" d="M598.31,260.35h-15.66v-122.39h15.66v53.62c2.55-4.44,6.21-8.02,10.99-10.74,4.77-2.72,10.32-4.08,16.65-4.08,10.32,0,18.04,3.05,23.14,9.16,5.11,6.11,7.66,14.38,7.66,24.81v49.79h-15.65v-46.29c0-5.55-.8-10.02-2.41-13.4-1.61-3.39-3.89-5.85-6.83-7.41-2.94-1.55-6.36-2.33-10.24-2.33-5,0-9.24,1.11-12.74,3.33s-6.13,5.22-7.91,8.99c-1.78,3.77-2.66,7.99-2.66,12.66v44.29h0Z"/>
            <path class="st5" d="M671.74,296.98v-117.89h14.16l1.17,14.65c2.66-5.66,6.63-9.91,11.9-12.74s11.13-4.25,17.57-4.25c7.77,0,14.48,1.8,20.15,5.41,5.66,3.61,10.02,8.61,13.07,14.99s4.58,13.74,4.58,22.06-1.47,15.77-4.41,22.31c-2.94,6.55-7.22,11.71-12.82,15.48-5.61,3.77-12.46,5.66-20.56,5.66-6.55,0-12.38-1.33-17.48-4-5.11-2.66-8.99-6.49-11.66-11.49v49.79h-15.66v.02h-.01ZM687.55,219.89c0,5.44,1.03,10.35,3.08,14.74s5,7.8,8.83,10.24,8.41,3.66,13.74,3.66,9.88-1.25,13.66-3.75c3.77-2.5,6.69-5.91,8.74-10.24s3.08-9.21,3.08-14.65-1.03-10.66-3.08-14.99-4.97-7.71-8.74-10.15c-3.78-2.44-8.33-3.66-13.66-3.66s-9.91,1.22-13.74,3.66-6.77,5.83-8.83,10.15c-2.05,4.33-3.08,9.33-3.08,14.99h0Z"/>
            <path class="st5" d="M759.65,219.72c0-8.33,1.83-15.71,5.49-22.15,3.66-6.44,8.69-11.49,15.07-15.15,6.38-3.66,13.68-5.5,21.9-5.5s15.49,1.83,21.81,5.5c6.33,3.66,11.32,8.72,14.99,15.15,3.66,6.44,5.49,13.82,5.49,22.15s-1.83,15.71-5.49,22.14c-3.67,6.44-8.66,11.49-14.99,15.16-6.33,3.66-13.6,5.5-21.81,5.5s-15.51-1.83-21.9-5.5c-6.38-3.66-11.41-8.72-15.07-15.16-3.66-6.44-5.49-13.82-5.49-22.14h0ZM775.47,219.72c0,5.66,1.13,10.66,3.41,14.98,2.28,4.33,5.41,7.72,9.41,10.16s8.6,3.66,13.82,3.66,9.83-1.22,13.82-3.66c4-2.44,7.13-5.83,9.41-10.16,2.28-4.33,3.41-9.33,3.41-14.98s-1.14-10.8-3.41-15.07c-2.28-4.27-5.41-7.63-9.41-10.07s-8.6-3.66-13.82-3.66-9.82,1.22-13.82,3.66-7.13,5.8-9.41,10.07c-2.28,4.27-3.41,9.3-3.41,15.07Z"/>
            <path class="st5" d="M862.72,159.78c-2.77,0-5.19-1.02-7.24-3.08-2.06-2.05-3.08-4.46-3.08-7.24s1.02-5.33,3.08-7.33c2.05-2,4.47-3,7.24-3s5.33,1,7.33,3,3,4.44,3,7.33-1,5.19-3,7.24c-2,2.06-4.44,3.08-7.33,3.08ZM855.06,260.52v-81.42h15.66v81.42h-15.66Z"/>
            <path class="st5" d="M902.36,260.52h-15.66v-81.42h14.16l1.66,12.49c2.55-4.66,6.24-8.3,11.07-10.91s10.13-3.91,15.9-3.91c10.66,0,18.54,3.05,23.64,9.16,5.11,6.11,7.66,14.38,7.66,24.81v49.79h-15.65v-46.29c0-8.21-1.78-14.12-5.33-17.73-3.56-3.61-8.33-5.41-14.32-5.41-7.33,0-13.02,2.39-17.07,7.16-4.06,4.77-6.08,11.16-6.08,19.15v43.13l.02-.02h0Z"/>
            <path class="st5" d="M967.12,179.09h47.62v13.15h-47.62v-13.15ZM998.76,260.52h-15.65v-106.9h15.65v106.9Z"/>
            <path id="Swoosh" class="st0" d="M911.08,121.01c-.36-1.5-1.17-2.8-2.02-3.7-.81-.84-1.66-1.44-2.37-1.83-2.91-1.53-4.9-1.66-6.93-1.97-1.98-.22-3.85-.3-5.66-.29-7.23.04-14.03.84-20.83,1.72-13.56,1.85-26.87,4.36-40.14,7.03-13.27,2.69-26.47,5.6-39.64,8.62l.03.18c13.41-1.64,26.83-3.18,40.25-4.48,13.42-1.28,26.86-2.4,40.2-2.83,6.64-.18,13.34-.24,19.6.39.95.09,1.8.27,2.68.42-4.42,3.03-10.04,5.79-15.52,8.34-3.64,1.67-7.35,3.26-11.09,4.81,1.48.55,2.83,1.39,4.01,2.57,2.19,2.2,3.3,4.91,3.3,8.07,0,1.47-.27,2.84-.78,4.13,3.84-2.08,7.67-4.2,11.47-6.45,6-3.64,11.88-7.11,17.82-12.38,1.48-1.42,3.03-2.83,4.59-5.55.71-1.39,1.74-3.66,1.03-6.8h0ZM900.35,125.3c.18.09.3.17.31.21.05.04-.1-.03-.31-.21Z"/>
          </g>
        </g>
      </g>
    </g>
  </g>
</svg>